<svg width="15" height="17" viewBox="0 0 15 17" fill="none" xmlns="http://www.w3.org/2000/svg">
<path d="M7.50001 0.78125C5.86957 0.78125 4.53126 2.11956 4.53126 3.75V4.34375H1.59932L1.56251 4.90069L0.968757 15.5882L0.931351 16.2188H14.0681L14.0313 15.5876L13.4375 4.90009L13.4001 4.34375H10.4688V3.75C10.4688 2.11956 9.13044 0.78125 7.50001 0.78125ZM7.50001 1.96875C7.97242 1.96875 8.42549 2.15642 8.75954 2.49047C9.09359 2.82452 9.28126 3.27758 9.28126 3.75V4.34375H5.71876V3.75C5.71876 3.27758 5.90642 2.82452 6.24047 2.49047C6.57452 2.15642 7.02759 1.96875 7.50001 1.96875ZM2.7126 5.53125H4.53126V7.3125H5.71876V5.53125H9.28126V7.3125H10.4688V5.53125H12.2874L12.8069 15.0312H2.19366L2.7126 5.53125Z" fill="white"/>
</svg>
